<svg width="788" height="145" viewBox="0 0 788 145" fill="none" xmlns="http://www.w3.org/2000/svg">
<path d="M0.660001 123.81C0.813334 122.89 0.813334 121.97 0.660001 121.05C0.506667 120.13 0.583334 119.133 0.89 118.06C1.04333 117.753 1.12 117.217 1.12 116.45C1.27333 115.683 1.27333 115.07 1.12 114.61L0.43 107.48C0.276667 106.253 0.276667 105.027 0.43 103.8C0.583334 102.42 0.660001 101.04 0.660001 99.66C0.506667 99.0467 0.43 98.51 0.43 98.05C0.583334 97.4367 0.660001 96.8233 0.660001 96.21C0.506667 94.5233 0.583334 92.76 0.89 90.92C1.35 89.08 1.42667 87.3167 1.12 85.63C1.12 85.4767 1.12 85.0933 1.12 84.48C1.12 83.8667 1.12 83.2533 1.12 82.64C1.12 81.8733 1.12 81.1833 1.12 80.57C1.27333 79.9567 1.35 79.5733 1.35 79.42C1.50333 76.5067 1.50333 73.44 1.35 70.22C1.35 66.6933 1.35 63.55 1.35 60.79C1.35 57.8767 1.50333 55.4233 1.81 53.43C1.96333 52.6633 2.04 51.7433 2.04 50.67C2.04 49.4433 2.04 48.2167 2.04 46.99C1.88667 45.3033 1.73333 43.4633 1.58 41.47C1.58 39.4767 1.58 37.4833 1.58 35.49C1.58 31.9633 1.50333 28.8967 1.35 26.29C1.35 23.53 1.27333 20.3867 1.12 16.86C1.12 15.6333 1.04333 14.4833 0.89 13.41C0.736667 12.1833 0.736667 10.9567 0.89 9.72999C0.89 9.42333 0.89 8.65667 0.89 7.43C0.89 6.20333 0.966667 5.43666 1.12 5.13C1.12 4.97666 1.19667 4.82332 1.35 4.66999C1.81 4.21 2.19333 3.98 2.5 3.98H19.06C21.2067 3.98 23.3533 3.98 25.5 3.98C27.8 3.98 29.87 4.05667 31.71 4.21C33.3967 4.36333 35.16 4.74666 37 5.36C38.9933 5.97333 40.6033 6.50999 41.83 6.96999C45.8167 8.34999 48.5767 9.42332 50.11 10.19C51.7967 10.9567 53.4067 11.9533 54.94 13.18C56.32 14.2533 57.7767 15.25 59.31 16.17C60.8433 17.09 62.3767 18.1633 63.91 19.39C65.4433 20.4633 66.9 21.8433 68.28 23.53C69.8133 25.0633 71.1933 27.0567 72.42 29.51C73.34 31.35 74.4133 33.2667 75.64 35.26C77.02 37.2533 77.6333 39.3233 77.48 41.47C78.2467 43.77 78.63 45.7633 78.63 47.45C78.7833 49.1367 79.2433 50.67 80.01 52.05C80.7767 55.4233 81.16 58.95 81.16 62.63C81.16 66.31 80.7767 69.6833 80.01 72.75C80.1633 74.8967 79.9333 77.0433 79.32 79.19C78.86 81.3367 78.5533 83.4833 78.4 85.63C78.2467 87.47 78.0167 88.9267 77.71 90C77.5567 91.0733 77.25 91.9933 76.79 92.76C76.4833 93.5267 76.1 94.2933 75.64 95.06C75.3333 95.8267 74.95 96.8233 74.49 98.05C74.3367 98.51 73.9533 99.2767 73.34 100.35C72.7267 101.27 72.0367 102.267 71.27 103.34C70.6567 104.413 69.9667 105.487 69.2 106.56C68.5867 107.48 68.2033 108.17 68.05 108.63C67.13 111.237 65.9033 113.153 64.37 114.38C62.99 115.453 61.15 117.217 58.85 119.67C58.39 120.13 57.6233 120.897 56.55 121.97C55.63 122.89 54.5567 123.887 53.33 124.96C52.2567 126.033 51.1833 127.03 50.11 127.95C49.0367 128.717 48.1933 129.33 47.58 129.79C46.9667 130.097 45.8933 130.71 44.36 131.63C42.98 132.397 41.4467 133.24 39.76 134.16C38.0733 135.08 36.4633 135.923 34.93 136.69C33.3967 137.457 32.4 137.84 31.94 137.84C30.4067 137.993 28.4133 138.147 25.96 138.3C23.5067 138.453 20.9767 138.607 18.37 138.76C15.7633 138.913 13.2333 138.99 10.78 138.99C8.32667 139.143 6.33333 139.22 4.8 139.22H2.27C1.81 138.913 1.50333 138.607 1.35 138.3C1.19667 137.993 1.04333 137.687 0.89 137.38C0.736667 137.073 0.660001 136.843 0.660001 136.69V123.81ZM17.91 92.76C17.7567 96.44 17.68 100.733 17.68 105.64C17.68 110.547 17.7567 114.84 17.91 118.52C22.3567 118.213 26.0367 117.523 28.95 116.45C31.8633 115.223 34.93 113.383 38.15 110.93C40.2967 109.397 41.7533 107.787 42.52 106.1C43.44 104.26 44.2833 102.42 45.05 100.58C45.8167 99.2 46.43 97.59 46.89 95.75C47.5033 93.91 48.1167 92.1467 48.73 90.46C49.0367 89.54 49.42 88.2367 49.88 86.55C50.4933 84.8633 50.8 83.4067 50.8 82.18C50.8 81.4133 50.9533 79.9567 51.26 77.81C51.72 75.51 51.8733 73.9767 51.72 73.21V69.07C51.72 66.31 51.7967 63.32 51.95 60.1C52.2567 56.88 52.18 52.8933 51.72 48.14V46.76C51.4133 42.7733 50.34 39.4767 48.5 36.87C46.66 34.2633 44.4367 31.4267 41.83 28.36C40.6033 26.8267 39.1467 25.6767 37.46 24.91C35.9267 24.1433 33.1667 23.07 29.18 21.69C27.9533 21.23 26.2667 20.9233 24.12 20.77C21.9733 20.4633 20.0567 20.2333 18.37 20.08C18.0633 20.6933 17.91 21.0767 17.91 21.23V21.69V23.53C17.6033 25.2167 17.45 27.3633 17.45 29.97C17.6033 32.4233 17.68 34.7233 17.68 36.87C17.68 39.4767 17.7567 42.4667 17.91 45.84C18.0633 49.2133 17.9867 52.6633 17.68 56.19C17.68 56.9567 17.6033 57.8 17.45 58.72C17.45 59.64 17.45 60.4833 17.45 61.25C17.6033 63.2433 17.6033 65.2367 17.45 67.23C17.2967 69.2233 17.45 71.2933 17.91 73.44C17.6033 76.66 17.5267 79.88 17.68 83.1C17.9867 86.32 18.0633 89.54 17.91 92.76ZM192.622 9.95999C192.009 11.9533 191.855 14.1 192.162 16.4C192.469 18.7 192.622 20.9233 192.622 23.07C192.009 23.07 190.859 23.3 189.172 23.76C187.639 24.0667 186.182 24.2967 184.802 24.45C184.189 24.45 183.499 24.45 182.732 24.45C181.965 24.2967 181.352 24.2967 180.892 24.45L176.522 25.37H163.642C160.422 25.5233 157.509 25.6 154.902 25.6C152.449 25.4467 149.612 25.37 146.392 25.37C145.779 25.37 144.859 25.4467 143.632 25.6C142.559 25.7533 141.792 25.7533 141.332 25.6C141.332 26.3667 141.255 26.98 141.102 27.44C140.949 27.9 140.872 28.5133 140.872 29.28C141.025 29.74 141.102 30.89 141.102 32.73C141.255 34.57 141.332 36.64 141.332 38.94C141.485 41.0867 141.562 43.08 141.562 44.92C141.715 46.76 141.792 47.91 141.792 48.37V58.72C141.792 59.9467 141.792 60.9433 141.792 61.71C141.945 62.4767 142.175 63.55 142.482 64.93H155.822C158.275 64.93 160.575 65.0067 162.722 65.16C164.869 65.3133 167.245 65.39 169.852 65.39C171.232 65.39 172.842 65.4667 174.682 65.62C176.675 65.7733 178.209 65.6967 179.282 65.39C179.435 66.77 179.589 68.2267 179.742 69.76C179.895 71.2933 179.972 72.6733 179.972 73.9V77.58C179.359 77.58 178.209 77.6567 176.522 77.81C174.835 77.9633 173.302 78.1167 171.922 78.27H162.262C159.195 78.73 156.359 78.96 153.752 78.96C151.145 78.96 148.232 78.96 145.012 78.96C144.399 78.96 143.632 79.0367 142.712 79.19C141.792 79.3433 141.102 79.3433 140.642 79.19V87.7C140.642 89.8467 140.642 92.07 140.642 94.37C140.795 96.67 141.102 98.6633 141.562 100.35C141.562 103.11 141.562 105.717 141.562 108.17C141.715 110.47 141.792 112.617 141.792 114.61V118.52C142.099 118.367 143.019 118.443 144.552 118.75C146.239 119.057 148.232 119.363 150.532 119.67C152.832 119.977 154.749 120.207 156.282 120.36C157.969 120.513 159.502 120.82 160.882 121.28C161.649 121.587 163.259 121.817 165.712 121.97C168.319 121.97 170.005 121.97 170.772 121.97C174.605 122.43 178.362 122.737 182.042 122.89C185.722 123.043 189.479 123.273 193.312 123.58H201.592C202.205 123.58 202.895 123.503 203.662 123.35C204.429 123.043 204.965 122.89 205.272 122.89C206.039 125.65 206.422 128.333 206.422 130.94C206.575 133.547 206.652 136.153 206.652 138.76C205.425 139.527 203.892 139.91 202.052 139.91C200.212 139.91 198.449 139.987 196.762 140.14C195.689 140.14 194.539 140.063 193.312 139.91C192.085 139.757 190.859 139.68 189.632 139.68C186.565 139.833 182.885 139.833 178.592 139.68C174.452 139.527 170.849 139.603 167.782 139.91H164.332C162.645 139.603 160.269 139.373 157.202 139.22C154.289 139.067 152.065 138.99 150.532 138.99C148.845 138.837 146.162 138.837 142.482 138.99C138.802 139.297 132.669 139.527 124.082 139.68C123.775 139.68 122.702 139.68 120.862 139.68C119.175 139.68 117.259 139.68 115.112 139.68C113.119 139.833 111.202 139.91 109.362 139.91C107.675 140.063 106.679 140.14 106.372 140.14C106.372 136.92 106.142 133.777 105.682 130.71C105.375 127.643 105.222 124.807 105.222 122.2C105.222 120.667 105.145 118.903 104.992 116.91C104.839 114.917 104.915 113.23 105.222 111.85C105.529 106.943 105.605 102.113 105.452 97.36C105.452 92.6067 105.452 87.7767 105.452 82.87C105.452 81.7967 105.375 79.88 105.222 77.12C105.069 74.36 105.069 71.7533 105.222 69.3L104.762 62.17C104.609 61.0967 104.685 59.18 104.992 56.42C105.452 53.5067 105.605 50.9767 105.452 48.83C105.299 45.3033 105.145 42.2367 104.992 39.63C104.839 36.87 104.685 33.65 104.532 29.97C104.379 26.75 104.379 23.6067 104.532 20.54C104.839 17.32 104.992 14.2533 104.992 11.34C104.992 10.5733 104.992 9.95999 104.992 9.5C105.145 8.88666 105.605 8.27333 106.372 7.65999L118.102 8.11999C120.402 8.27333 123.009 8.27333 125.922 8.11999C128.989 7.96666 131.672 7.96666 133.972 8.11999C134.585 8.11999 135.122 8.11999 135.582 8.11999C136.195 7.96666 136.809 7.88999 137.422 7.88999C137.882 7.88999 138.879 7.88999 140.412 7.88999C141.945 7.88999 143.555 7.88999 145.242 7.88999C146.929 7.88999 148.462 7.88999 149.842 7.88999C151.222 7.88999 152.065 7.96666 152.372 8.11999C152.679 8.27333 153.599 8.42666 155.132 8.58C156.665 8.73333 157.815 8.80999 158.582 8.80999C159.042 8.80999 159.732 8.80999 160.652 8.80999C161.572 8.65666 162.492 8.58 163.412 8.58C164.485 8.58 165.482 8.58 166.402 8.58C167.322 8.58 168.012 8.58 168.472 8.58C170.159 8.88666 171.692 9.03999 173.072 9.03999C174.605 8.88666 176.215 8.88666 177.902 9.03999C178.055 9.03999 178.822 9.11666 180.202 9.27C181.735 9.27 183.422 9.34667 185.262 9.5C187.102 9.65333 188.712 9.80666 190.092 9.95999C191.625 9.95999 192.469 9.95999 192.622 9.95999ZM276.892 139.91C276.125 139.91 275.435 139.833 274.822 139.68C274.208 139.68 273.595 139.603 272.982 139.45C272.522 139.45 272.138 139.45 271.832 139.45C270.298 139.603 268.995 139.68 267.922 139.68C267.002 139.68 266.082 139.603 265.162 139.45C264.242 139.297 263.322 139.067 262.402 138.76C261.482 138.453 260.332 137.993 258.952 137.38C257.878 136.767 256.652 136.307 255.272 136C253.892 135.847 252.665 135.387 251.592 134.62C249.752 133.24 247.682 132.09 245.382 131.17C243.235 130.097 241.242 128.87 239.402 127.49C239.095 127.183 238.712 126.877 238.252 126.57C237.792 126.11 237.408 125.65 237.102 125.19C235.568 124.117 234.112 123.12 232.732 122.2C231.505 121.127 230.355 119.9 229.282 118.52C228.668 117.907 227.748 116.757 226.522 115.07C225.448 113.23 224.298 111.313 223.072 109.32C221.998 107.327 221.002 105.41 220.082 103.57C219.315 101.73 218.932 100.427 218.932 99.66C218.932 97.36 218.472 95.1367 217.552 92.99C216.632 90.8433 216.172 88.62 216.172 86.32C216.172 86.1667 216.172 85.4767 216.172 84.25C216.172 83.0233 216.172 81.5667 216.172 79.88C216.172 78.04 216.172 76.0467 216.172 73.9C216.172 71.7533 216.172 69.76 216.172 67.92C216.325 65.62 216.478 63.7033 216.632 62.17C216.785 60.4833 216.938 59.5633 217.092 59.41C218.778 52.05 220.542 45.38 222.382 39.4C224.375 33.42 227.595 27.9767 232.042 23.07C233.268 20.4633 235.185 18.6233 237.792 17.55C239.785 16.3233 241.702 15.0967 243.542 13.87C245.382 12.49 247.375 11.1867 249.522 9.95999C251.668 9.03999 253.815 8.27333 255.962 7.65999C258.262 7.04666 260.102 6.43332 261.482 5.81999C263.935 5.66666 266.312 5.20666 268.612 4.43999C271.065 3.67333 273.365 3.28999 275.512 3.28999C277.352 3.28999 279.498 3.36666 281.952 3.51999C284.405 3.51999 286.552 3.90332 288.392 4.66999C290.845 4.97666 293.298 5.59 295.752 6.50999C298.358 7.27666 300.658 8.42666 302.652 9.95999C303.572 10.7267 304.492 11.2633 305.412 11.57C306.332 11.8767 307.175 12.1833 307.942 12.49V16.17C307.942 16.9367 307.942 17.8567 307.942 18.93C308.095 20.0033 308.172 20.8467 308.172 21.46C308.172 22.6867 308.018 23.6067 307.712 24.22C307.405 24.5267 307.252 24.9867 307.252 25.6C307.252 26.06 307.098 26.29 306.792 26.29H306.332C305.872 26.29 305.412 26.06 304.952 25.6C304.185 25.14 303.418 24.91 302.652 24.91C301.885 24.7567 301.195 24.6033 300.582 24.45C299.662 24.2967 298.895 24.1433 298.282 23.99C297.668 23.6833 296.748 23.53 295.522 23.53C294.755 23.53 293.912 23.53 292.992 23.53C292.072 23.53 291.152 23.6067 290.232 23.76C289.005 23.9133 287.318 23.99 285.172 23.99C283.178 23.8367 281.798 23.8367 281.032 23.99C279.958 24.1433 279.038 24.3733 278.272 24.68C277.658 24.9867 277.045 25.2933 276.432 25.6C275.052 26.3667 273.825 27.0567 272.752 27.67C271.678 28.2833 270.528 28.9733 269.302 29.74C266.082 32.3467 263.168 35.1833 260.562 38.25C256.882 42.6967 254.122 47.0667 252.282 51.36C250.442 55.5 249.522 60.4067 249.522 66.08V80.11L254.812 98.05C255.118 99.89 255.808 101.5 256.882 102.88C257.955 104.26 258.875 105.717 259.642 107.25C262.248 109.857 264.548 111.927 266.542 113.46C268.688 114.84 270.835 116.297 272.982 117.83C274.208 118.443 275.665 119.057 277.352 119.67C279.038 120.13 280.495 120.743 281.722 121.51C282.642 121.51 283.792 121.74 285.172 122.2C286.705 122.66 289.465 122.89 293.452 122.89H301.272C302.498 122.89 303.495 122.89 304.262 122.89C305.182 122.737 306.025 122.277 306.792 121.51H307.942L312.082 133.24C310.702 134.007 309.398 134.62 308.172 135.08C307.098 135.54 305.872 136.077 304.492 136.69C302.192 137.303 300.122 137.763 298.282 138.07C296.442 138.53 294.448 139.143 292.302 139.91H276.892ZM333.65 109.78C334.723 106.713 335.796 103.723 336.87 100.81C338.096 97.7433 339.246 94.6767 340.32 91.61C341.086 89.31 342.083 87.01 343.31 84.71C344.536 82.41 345.61 80.34 346.53 78.5C347.296 75.8933 348.063 73.8233 348.83 72.29C349.75 70.6033 350.286 69.53 350.44 69.07C350.44 68.7633 350.746 67.9967 351.36 66.77C352.126 65.5433 352.97 63.55 353.89 60.79C354.35 59.41 354.733 57.9533 355.04 56.42C355.5 54.8867 356.036 53.43 356.65 52.05L362.17 38.71C362.783 37.0233 363.166 35.7967 363.32 35.03C363.626 34.11 363.856 33.3433 364.01 32.73C364.163 32.1167 364.316 31.4267 364.47 30.66C364.623 29.8933 365.083 28.6667 365.85 26.98C366.616 25.2933 367.23 23.6833 367.69 22.15C368.303 20.6167 368.993 19.0067 369.76 17.32C370.066 16.4 370.373 15.48 370.68 14.56C370.986 13.64 371.293 12.72 371.6 11.8C372.06 10.5733 372.443 9.49999 372.75 8.58C373.056 7.66 373.363 6.58666 373.67 5.36C373.976 5.05332 374.206 4.66999 374.36 4.21C374.513 3.59666 374.82 2.90666 375.28 2.14C376.2 1.52666 376.966 1.21999 377.58 1.21999C378.193 1.06666 378.806 0.989997 379.42 0.989997H390C390.306 1.60333 390.46 2.21666 390.46 2.82999C390.46 3.28999 390.613 3.82666 390.92 4.43999L391.84 7.88999L392.53 9.72999L395.06 16.86L399.2 28.59L400.81 31.58C401.116 31.8867 401.423 32.5767 401.73 33.65C402.036 34.57 402.496 35.7967 403.11 37.33C403.876 39.3233 404.643 41.6233 405.41 44.23C406.33 46.6833 407.173 49.1367 407.94 51.59C409.013 55.4233 409.856 58.26 410.47 60.1C411.236 61.94 412.003 63.8567 412.77 65.85C413.23 66.4633 413.536 67.1533 413.69 67.92C413.843 68.6867 414.073 69.4533 414.38 70.22L417.37 79.65L421.28 87.93C421.74 89.31 422.2 90.69 422.66 92.07C423.273 93.2967 423.963 94.5233 424.73 95.75C425.956 98.8167 426.953 101.653 427.72 104.26C428.486 106.713 429.483 109.473 430.71 112.54C431.323 113.92 431.936 115.223 432.55 116.45C433.316 117.677 433.93 118.98 434.39 120.36C434.696 121.127 435.003 121.893 435.31 122.66C435.616 123.427 435.923 124.193 436.23 124.96C436.996 126.34 437.61 127.797 438.07 129.33C438.683 130.71 439.373 132.243 440.14 133.93C440.446 134.85 440.83 135.77 441.29 136.69C441.75 137.61 442.056 138.453 442.21 139.22C441.443 139.22 440.676 139.143 439.91 138.99C439.143 138.837 438.453 138.76 437.84 138.76H433.93C432.55 138.76 431.323 138.76 430.25 138.76C429.176 138.913 428.256 138.99 427.49 138.99C426.723 137.15 425.573 135.387 424.04 133.7C422.66 131.86 421.203 129.637 419.67 127.03C419.363 126.263 419.056 125.573 418.75 124.96C418.443 124.347 418.136 123.733 417.83 123.12C417.523 122.2 416.603 120.897 415.07 119.21C413.69 117.523 412.923 116.22 412.77 115.3C411.543 113.92 410.623 112.847 410.01 112.08C409.55 111.16 408.936 110.317 408.17 109.55C407.556 109.55 406.79 109.55 405.87 109.55C404.95 109.397 404.106 109.243 403.34 109.09C402.42 108.937 401.423 108.86 400.35 108.86H394.83C394.063 108.86 393.22 108.937 392.3 109.09C391.533 109.09 390.306 109.167 388.62 109.32C386.933 109.32 384.633 109.397 381.72 109.55C378.806 109.55 374.896 109.55 369.99 109.55H368.38C367.153 109.55 366.156 109.703 365.39 110.01C364.776 110.163 363.856 110.01 362.63 109.55C362.17 109.243 361.02 109.167 359.18 109.32C357.493 109.473 356.343 109.627 355.73 109.78L352.74 110.01L351.59 111.62C351.283 112.54 350.746 113.613 349.98 114.84C349.213 116.067 348.446 117.293 347.68 118.52C346.913 119.747 346.146 120.973 345.38 122.2C344.766 123.427 344.306 124.423 344 125.19L342.39 129.33L336.64 139.91C336.333 140.523 335.873 140.83 335.26 140.83C334.646 140.83 334.186 140.983 333.88 141.29H322.15C321.536 140.677 321.23 140.293 321.23 140.14C321.23 139.987 321.536 139.527 322.15 138.76C322.15 138.147 322.38 137.227 322.84 136C323.3 134.927 323.53 134.083 323.53 133.47C324.296 132.243 324.91 131.017 325.37 129.79C325.983 128.41 326.596 127.107 327.21 125.88L333.65 109.78ZM381.95 52.74C381.183 53.0467 380.646 53.43 380.34 53.89C380.033 54.35 379.726 54.8867 379.42 55.5C378.806 57.6467 377.963 59.7933 376.89 61.94C375.97 63.9333 375.05 66.0033 374.13 68.15C373.363 69.6833 372.596 71.14 371.83 72.52C371.063 73.7467 370.373 75.1267 369.76 76.66C368.38 79.7267 367 82.7933 365.62 85.86C364.24 88.7733 362.706 91.6867 361.02 94.6H362.4C363.626 94.6 364.7 94.6767 365.62 94.83C366.693 94.9833 367.766 94.9067 368.84 94.6C369.76 94.2933 370.603 94.2167 371.37 94.37C372.29 94.5233 373.133 94.6 373.9 94.6C376.506 94.6 379.19 94.6 381.95 94.6C384.71 94.4467 387.776 94.5233 391.15 94.83C392.836 94.9833 394.37 94.9833 395.75 94.83C397.283 94.6767 398.816 94.6 400.35 94.6H402.42C402.266 93.9867 402.036 93.5267 401.73 93.22C401.576 92.76 401.346 92.3 401.04 91.84C400.426 90.6133 399.736 89.54 398.97 88.62C398.356 87.7 397.82 86.55 397.36 85.17L389.31 69.07C389.003 68.3033 388.696 67.3067 388.39 66.08L381.95 52.74ZM454.146 123.81C454.3 122.89 454.3 121.97 454.146 121.05C453.993 120.13 454.07 119.133 454.376 118.06C454.53 117.753 454.606 117.217 454.606 116.45C454.76 115.683 454.76 115.07 454.606 114.61L453.916 107.48C453.763 106.253 453.763 105.027 453.916 103.8C454.07 102.42 454.146 101.04 454.146 99.66C453.993 99.0467 453.916 98.51 453.916 98.05C454.07 97.4367 454.146 96.8233 454.146 96.21C453.993 94.5233 454.07 92.76 454.376 90.92C454.836 89.08 454.913 87.3167 454.606 85.63C454.606 85.4767 454.606 85.0933 454.606 84.48C454.606 83.8667 454.606 83.2533 454.606 82.64C454.606 81.8733 454.606 81.1833 454.606 80.57C454.76 79.9567 454.836 79.5733 454.836 79.42C454.99 76.5067 454.99 73.44 454.836 70.22C454.836 66.6933 454.836 63.55 454.836 60.79C454.836 57.8767 454.99 55.4233 455.296 53.43C455.45 52.6633 455.526 51.7433 455.526 50.67C455.526 49.4433 455.526 48.2167 455.526 46.99C455.373 45.3033 455.22 43.4633 455.066 41.47C455.066 39.4767 455.066 37.4833 455.066 35.49C455.066 31.9633 454.99 28.8967 454.836 26.29C454.836 23.53 454.76 20.3867 454.606 16.86C454.606 15.6333 454.53 14.4833 454.376 13.41C454.223 12.1833 454.223 10.9567 454.376 9.72999C454.376 9.42333 454.376 8.65667 454.376 7.43C454.376 6.20333 454.453 5.43666 454.606 5.13C454.606 4.97666 454.683 4.82332 454.836 4.66999C455.296 4.21 455.68 3.98 455.986 3.98H472.546C474.693 3.98 476.84 3.98 478.986 3.98C481.286 3.98 483.356 4.05667 485.196 4.21C486.883 4.36333 488.646 4.74666 490.486 5.36C492.48 5.97333 494.09 6.50999 495.316 6.96999C499.303 8.34999 502.063 9.42332 503.596 10.19C505.283 10.9567 506.893 11.9533 508.426 13.18C509.806 14.2533 511.263 15.25 512.796 16.17C514.33 17.09 515.863 18.1633 517.396 19.39C518.93 20.4633 520.386 21.8433 521.766 23.53C523.3 25.0633 524.68 27.0567 525.906 29.51C526.826 31.35 527.9 33.2667 529.126 35.26C530.506 37.2533 531.12 39.3233 530.966 41.47C531.733 43.77 532.116 45.7633 532.116 47.45C532.27 49.1367 532.73 50.67 533.496 52.05C534.263 55.4233 534.646 58.95 534.646 62.63C534.646 66.31 534.263 69.6833 533.496 72.75C533.65 74.8967 533.42 77.0433 532.806 79.19C532.346 81.3367 532.04 83.4833 531.886 85.63C531.733 87.47 531.503 88.9267 531.196 90C531.043 91.0733 530.736 91.9933 530.276 92.76C529.97 93.5267 529.586 94.2933 529.126 95.06C528.82 95.8267 528.436 96.8233 527.976 98.05C527.823 98.51 527.44 99.2767 526.826 100.35C526.213 101.27 525.523 102.267 524.756 103.34C524.143 104.413 523.453 105.487 522.686 106.56C522.073 107.48 521.69 108.17 521.536 108.63C520.616 111.237 519.39 113.153 517.856 114.38C516.476 115.453 514.636 117.217 512.336 119.67C511.876 120.13 511.11 120.897 510.036 121.97C509.116 122.89 508.043 123.887 506.816 124.96C505.743 126.033 504.67 127.03 503.596 127.95C502.523 128.717 501.68 129.33 501.066 129.79C500.453 130.097 499.38 130.71 497.846 131.63C496.466 132.397 494.933 133.24 493.246 134.16C491.56 135.08 489.95 135.923 488.416 136.69C486.883 137.457 485.886 137.84 485.426 137.84C483.893 137.993 481.9 138.147 479.446 138.3C476.993 138.453 474.463 138.607 471.856 138.76C469.25 138.913 466.72 138.99 464.266 138.99C461.813 139.143 459.82 139.22 458.286 139.22H455.756C455.296 138.913 454.99 138.607 454.836 138.3C454.683 137.993 454.53 137.687 454.376 137.38C454.223 137.073 454.146 136.843 454.146 136.69V123.81ZM471.396 92.76C471.243 96.44 471.166 100.733 471.166 105.64C471.166 110.547 471.243 114.84 471.396 118.52C475.843 118.213 479.523 117.523 482.436 116.45C485.35 115.223 488.416 113.383 491.636 110.93C493.783 109.397 495.24 107.787 496.006 106.1C496.926 104.26 497.77 102.42 498.536 100.58C499.303 99.2 499.916 97.59 500.376 95.75C500.99 93.91 501.603 92.1467 502.216 90.46C502.523 89.54 502.906 88.2367 503.366 86.55C503.98 84.8633 504.286 83.4067 504.286 82.18C504.286 81.4133 504.44 79.9567 504.746 77.81C505.206 75.51 505.36 73.9767 505.206 73.21V69.07C505.206 66.31 505.283 63.32 505.436 60.1C505.743 56.88 505.666 52.8933 505.206 48.14V46.76C504.9 42.7733 503.826 39.4767 501.986 36.87C500.146 34.2633 497.923 31.4267 495.316 28.36C494.09 26.8267 492.633 25.6767 490.946 24.91C489.413 24.1433 486.653 23.07 482.666 21.69C481.44 21.23 479.753 20.9233 477.606 20.77C475.46 20.4633 473.543 20.2333 471.856 20.08C471.55 20.6933 471.396 21.0767 471.396 21.23V21.69V23.53C471.09 25.2167 470.936 27.3633 470.936 29.97C471.09 32.4233 471.166 34.7233 471.166 36.87C471.166 39.4767 471.243 42.4667 471.396 45.84C471.55 49.2133 471.473 52.6633 471.166 56.19C471.166 56.9567 471.09 57.8 470.936 58.72C470.936 59.64 470.936 60.4833 470.936 61.25C471.09 63.2433 471.09 65.2367 470.936 67.23C470.783 69.2233 470.936 71.2933 471.396 73.44C471.09 76.66 471.013 79.88 471.166 83.1C471.473 86.32 471.55 89.54 471.396 92.76ZM646.108 9.95999C645.495 11.9533 645.342 14.1 645.648 16.4C645.955 18.7 646.108 20.9233 646.108 23.07C645.495 23.07 644.345 23.3 642.658 23.76C641.125 24.0667 639.668 24.2967 638.288 24.45C637.675 24.45 636.985 24.45 636.218 24.45C635.452 24.2967 634.838 24.2967 634.378 24.45L630.008 25.37H617.128C613.908 25.5233 610.995 25.6 608.388 25.6C605.935 25.4467 603.098 25.37 599.878 25.37C599.265 25.37 598.345 25.4467 597.118 25.6C596.045 25.7533 595.278 25.7533 594.818 25.6C594.818 26.3667 594.742 26.98 594.588 27.44C594.435 27.9 594.358 28.5133 594.358 29.28C594.512 29.74 594.588 30.89 594.588 32.73C594.742 34.57 594.818 36.64 594.818 38.94C594.972 41.0867 595.048 43.08 595.048 44.92C595.202 46.76 595.278 47.91 595.278 48.37V58.72C595.278 59.9467 595.278 60.9433 595.278 61.71C595.432 62.4767 595.662 63.55 595.968 64.93H609.308C611.762 64.93 614.062 65.0067 616.208 65.16C618.355 65.3133 620.732 65.39 623.338 65.39C624.718 65.39 626.328 65.4667 628.168 65.62C630.162 65.7733 631.695 65.6967 632.768 65.39C632.922 66.77 633.075 68.2267 633.228 69.76C633.382 71.2933 633.458 72.6733 633.458 73.9V77.58C632.845 77.58 631.695 77.6567 630.008 77.81C628.322 77.9633 626.788 78.1167 625.408 78.27H615.748C612.682 78.73 609.845 78.96 607.238 78.96C604.632 78.96 601.718 78.96 598.498 78.96C597.885 78.96 597.118 79.0367 596.198 79.19C595.278 79.3433 594.588 79.3433 594.128 79.19V87.7C594.128 89.8467 594.128 92.07 594.128 94.37C594.282 96.67 594.588 98.6633 595.048 100.35C595.048 103.11 595.048 105.717 595.048 108.17C595.202 110.47 595.278 112.617 595.278 114.61V118.52C595.585 118.367 596.505 118.443 598.038 118.75C599.725 119.057 601.718 119.363 604.018 119.67C606.318 119.977 608.235 120.207 609.768 120.36C611.455 120.513 612.988 120.82 614.368 121.28C615.135 121.587 616.745 121.817 619.198 121.97C621.805 121.97 623.492 121.97 624.258 121.97C628.092 122.43 631.848 122.737 635.528 122.89C639.208 123.043 642.965 123.273 646.798 123.58H655.078C655.692 123.58 656.382 123.503 657.148 123.35C657.915 123.043 658.452 122.89 658.758 122.89C659.525 125.65 659.908 128.333 659.908 130.94C660.062 133.547 660.138 136.153 660.138 138.76C658.912 139.527 657.378 139.91 655.538 139.91C653.698 139.91 651.935 139.987 650.248 140.14C649.175 140.14 648.025 140.063 646.798 139.91C645.572 139.757 644.345 139.68 643.118 139.68C640.052 139.833 636.372 139.833 632.078 139.68C627.938 139.527 624.335 139.603 621.268 139.91H617.818C616.132 139.603 613.755 139.373 610.688 139.22C607.775 139.067 605.552 138.99 604.018 138.99C602.332 138.837 599.648 138.837 595.968 138.99C592.288 139.297 586.155 139.527 577.568 139.68C577.262 139.68 576.188 139.68 574.348 139.68C572.662 139.68 570.745 139.68 568.598 139.68C566.605 139.833 564.688 139.91 562.848 139.91C561.162 140.063 560.165 140.14 559.858 140.14C559.858 136.92 559.628 133.777 559.168 130.71C558.862 127.643 558.708 124.807 558.708 122.2C558.708 120.667 558.632 118.903 558.478 116.91C558.325 114.917 558.402 113.23 558.708 111.85C559.015 106.943 559.092 102.113 558.938 97.36C558.938 92.6067 558.938 87.7767 558.938 82.87C558.938 81.7967 558.862 79.88 558.708 77.12C558.555 74.36 558.555 71.7533 558.708 69.3L558.248 62.17C558.095 61.0967 558.172 59.18 558.478 56.42C558.938 53.5067 559.092 50.9767 558.938 48.83C558.785 45.3033 558.632 42.2367 558.478 39.63C558.325 36.87 558.172 33.65 558.018 29.97C557.865 26.75 557.865 23.6067 558.018 20.54C558.325 17.32 558.478 14.2533 558.478 11.34C558.478 10.5733 558.478 9.95999 558.478 9.5C558.632 8.88666 559.092 8.27333 559.858 7.65999L571.588 8.11999C573.888 8.27333 576.495 8.27333 579.408 8.11999C582.475 7.96666 585.158 7.96666 587.458 8.11999C588.072 8.11999 588.608 8.11999 589.068 8.11999C589.682 7.96666 590.295 7.88999 590.908 7.88999C591.368 7.88999 592.365 7.88999 593.898 7.88999C595.432 7.88999 597.042 7.88999 598.728 7.88999C600.415 7.88999 601.948 7.88999 603.328 7.88999C604.708 7.88999 605.552 7.96666 605.858 8.11999C606.165 8.27333 607.085 8.42666 608.618 8.58C610.152 8.73333 611.302 8.80999 612.068 8.80999C612.528 8.80999 613.218 8.80999 614.138 8.80999C615.058 8.65666 615.978 8.58 616.898 8.58C617.972 8.58 618.968 8.58 619.888 8.58C620.808 8.58 621.498 8.58 621.958 8.58C623.645 8.88666 625.178 9.03999 626.558 9.03999C628.092 8.88666 629.702 8.88666 631.388 9.03999C631.542 9.03999 632.308 9.11666 633.688 9.27C635.222 9.27 636.908 9.34667 638.748 9.5C640.588 9.65333 642.198 9.80666 643.578 9.95999C645.112 9.95999 645.955 9.95999 646.108 9.95999ZM721.868 2.36999C723.401 1.75666 725.701 1.60333 728.768 1.91C731.835 2.21666 734.288 2.36999 736.128 2.36999C737.201 2.36999 738.581 2.44666 740.268 2.59999C742.108 2.59999 744.025 2.75333 746.018 3.06C748.011 3.21333 749.851 3.36666 751.538 3.51999C753.378 3.51999 754.758 3.51999 755.678 3.51999C757.058 3.51999 758.975 3.59666 761.428 3.74999C763.881 3.74999 765.721 4.05666 766.948 4.66999C767.561 4.97666 768.865 5.28333 770.858 5.58999C773.005 5.74332 774.308 5.89666 774.768 6.05C775.535 6.05 775.995 6.12667 776.148 6.28C776.301 6.28 776.685 6.58666 777.298 7.2C777.298 8.73333 777.068 10.19 776.608 11.57C776.301 12.7967 776.148 14.0233 776.148 15.25C775.075 15.25 773.925 15.3267 772.698 15.48C771.471 15.6333 770.398 15.7867 769.478 15.94C767.945 16.2467 766.718 16.4 765.798 16.4C765.031 16.2467 763.651 16.17 761.658 16.17C759.818 16.17 757.825 16.2467 755.678 16.4C753.685 16.5533 751.845 16.7067 750.158 16.86C748.471 17.0133 747.015 17.1667 745.788 17.32C744.715 17.4733 744.101 17.55 743.948 17.55C742.261 17.8567 740.038 18.3167 737.278 18.93C734.518 19.5433 731.681 20.31 728.768 21.23C725.855 21.9967 723.171 22.9167 720.718 23.99C718.265 25.0633 716.578 26.1367 715.658 27.21C714.278 29.2033 712.898 30.8133 711.518 32.04C710.291 33.1133 709.371 34.7233 708.758 36.87C708.451 37.4833 708.298 38.5567 708.298 40.09C708.298 41.47 708.298 43.0033 708.298 44.69C708.451 46.2233 708.681 47.7567 708.988 49.29C709.295 50.8233 709.678 51.9733 710.138 52.74C711.365 54.12 712.361 55.5 713.128 56.88C713.895 58.26 714.508 59.1033 714.968 59.41C716.041 60.0233 717.345 60.79 718.878 61.71C720.565 62.63 722.251 63.4733 723.938 64.24C724.245 64.3933 725.165 64.6233 726.698 64.93C728.385 65.0833 730.301 65.4667 732.448 66.08C733.675 66.3867 734.441 66.6167 734.748 66.77C735.055 66.9233 735.745 67.1533 736.818 67.46C737.585 67.7667 738.121 67.9967 738.428 68.15C738.735 68.3033 739.271 68.5333 740.038 68.84C740.958 69.1467 741.955 69.4533 743.028 69.76C744.255 69.9133 744.945 69.99 745.098 69.99C746.325 69.99 747.551 70.22 748.778 70.68C750.158 70.9867 751.461 71.14 752.688 71.14C754.835 71.7533 756.828 72.2133 758.668 72.52C760.508 72.8267 762.425 73.67 764.418 75.05C765.491 75.3567 766.641 75.74 767.868 76.2C769.095 76.66 770.091 77.12 770.858 77.58C771.318 77.8867 772.161 78.4233 773.388 79.19C774.768 79.8033 776.148 80.57 777.528 81.49C778.908 82.41 780.211 83.4067 781.438 84.48C782.665 85.5533 783.431 86.4733 783.738 87.24C785.271 89.6933 786.345 92.2233 786.958 94.83C787.571 97.2833 787.878 99.8133 787.878 102.42C787.878 103.187 787.725 104.183 787.418 105.41C787.265 106.637 787.111 107.633 786.958 108.4L785.808 114.84C785.501 115.607 784.811 116.987 783.738 118.98C782.665 120.973 781.975 122.123 781.668 122.43C781.515 122.737 781.131 123.273 780.518 124.04C779.905 124.653 779.215 125.343 778.448 126.11C777.835 126.723 777.221 127.337 776.608 127.95C775.995 128.41 775.611 128.717 775.458 128.87C774.385 129.79 772.698 131.017 770.398 132.55C768.251 134.083 765.875 135.617 763.268 137.15C760.815 138.837 758.361 140.217 755.908 141.29C753.608 142.517 751.691 143.13 750.158 143.13C749.851 143.437 749.468 143.513 749.008 143.36C748.548 143.36 748.088 143.513 747.628 143.82C745.941 143.82 744.331 143.897 742.798 144.05C741.265 144.357 739.195 144.433 736.588 144.28C734.288 144.127 732.065 144.127 729.918 144.28C727.925 144.587 725.701 144.663 723.248 144.51C722.021 144.51 720.181 144.51 717.728 144.51C715.275 144.51 712.668 144.433 709.908 144.28C707.148 144.28 704.465 144.203 701.858 144.05C699.405 143.897 697.411 143.59 695.878 143.13C695.725 143.13 695.188 143.053 694.268 142.9C693.501 142.747 692.581 142.593 691.508 142.44C690.588 142.44 689.668 142.363 688.748 142.21C687.828 142.057 687.138 141.98 686.678 141.98C685.451 141.827 683.611 141.597 681.158 141.29C678.858 140.983 677.248 140.677 676.328 140.37C675.715 140.063 675.025 139.603 674.258 138.99C673.645 138.53 673.338 137.917 673.338 137.15C673.031 136.537 672.571 135.387 671.958 133.7C671.498 131.86 671.038 130.02 670.578 128.18C670.118 126.187 669.735 124.423 669.428 122.89C669.275 121.357 669.351 120.59 669.658 120.59C672.265 121.203 674.871 121.817 677.478 122.43C680.238 122.89 683.305 123.427 686.678 124.04C689.285 124.04 691.891 124.347 694.498 124.96C697.105 125.42 700.095 125.65 703.468 125.65C704.695 125.65 705.998 125.573 707.378 125.42C708.758 125.113 710.521 124.807 712.668 124.5C713.128 124.347 713.588 124.27 714.048 124.27C714.508 124.27 714.891 124.193 715.198 124.04C717.498 124.04 720.181 123.35 723.248 121.97C726.315 120.437 728.691 119.287 730.378 118.52C730.531 118.52 730.915 118.29 731.528 117.83C732.295 117.37 733.061 116.833 733.828 116.22C734.595 115.453 735.285 114.763 735.898 114.15C736.665 113.537 737.125 113.077 737.278 112.77L741.648 106.1C741.955 105.333 742.338 104.49 742.798 103.57C743.411 102.497 743.871 101.577 744.178 100.81C745.098 98.51 745.098 95.5967 744.178 92.07C743.258 91.3033 742.491 90.46 741.878 89.54C741.418 88.62 740.728 87.6233 739.808 86.55C739.041 85.3233 738.121 84.4033 737.048 83.79C735.975 83.0233 734.825 82.3333 733.598 81.72C731.451 80.9533 729.458 80.2633 727.618 79.65C725.778 78.8833 724.245 78.5 723.018 78.5C720.871 77.8867 719.108 77.5033 717.728 77.35C716.501 77.1967 715.275 76.8133 714.048 76.2C712.055 75.5867 710.291 75.2033 708.758 75.05C707.378 74.8967 706.075 74.4367 704.848 73.67C702.855 73.67 701.091 73.44 699.558 72.98C698.178 72.3667 696.415 71.7533 694.268 71.14C693.501 70.68 692.658 70.22 691.738 69.76C690.818 69.3 690.128 68.9167 689.668 68.61C687.521 66.9233 685.681 65.5433 684.148 64.47C682.615 63.3967 681.005 61.7867 679.318 59.64C677.785 57.6467 676.711 56.3433 676.098 55.73C675.485 54.9633 674.718 53.66 673.798 51.82C673.491 51.0533 673.185 50.0567 672.878 48.83C672.571 47.45 672.341 46.1467 672.188 44.92C672.035 43.54 671.881 42.3133 671.728 41.24C671.728 40.0133 671.728 39.17 671.728 38.71C671.728 36.7167 671.805 35.1067 671.958 33.88C672.111 32.6533 672.265 31.35 672.418 29.97C672.571 28.7433 672.955 27.44 673.568 26.06C674.181 24.68 674.871 23.53 675.638 22.61C677.325 19.5433 679.241 17.3967 681.388 16.17C683.535 14.79 685.988 13.1033 688.748 11.11C689.361 10.65 690.281 10.1133 691.508 9.5C692.888 8.73333 694.268 8.04333 695.648 7.43C697.181 6.81666 698.638 6.27999 700.018 5.81999C701.398 5.36 702.548 4.97666 703.468 4.66999C704.695 4.66999 705.768 4.51666 706.688 4.21C707.608 3.74999 708.758 3.51999 710.138 3.51999C711.365 3.51999 712.285 3.44333 712.898 3.28999C713.665 3.13666 714.661 3.06 715.888 3.06C716.655 3.06 717.421 3.13666 718.188 3.28999C719.108 3.28999 720.335 2.98333 721.868 2.36999Z" fill="#252525"/>
<path d="M-9 182H792.478V193.5H-9V182Z" fill="#252525"/>
</svg>
