<svg width="236" height="934" viewBox="0 0 236 934" fill="none" xmlns="http://www.w3.org/2000/svg">
<path d="M29.9069 787.204C24.8122 788.67 20.3107 790.729 16.4025 793.381C12.4245 796.033 9.07458 799.278 6.35278 803.116C3.56118 806.885 1.43259 811.212 -0.0329975 816.097C-1.49858 820.913 -2.23138 826.252 -2.23138 832.114C-2.23138 843.071 0.490425 852.702 5.93402 861.007C11.3776 869.242 19.2988 875.663 29.6975 880.269C40.0264 884.875 52.6583 887.178 67.5934 887.178C82.5284 887.178 95.2302 884.91 105.699 880.374C116.167 875.837 124.158 869.417 129.671 861.112C135.115 852.807 137.837 843.001 137.837 831.695C137.837 821.436 136.022 812.677 132.393 805.419C128.694 798.091 123.495 792.508 116.795 788.67C110.095 784.761 102.174 782.807 93.0318 782.807L94.3927 773.595L94.3927 828.869L60.2654 828.869L60.2654 739.154L87.2741 739.154C106.117 739.154 122.309 743.132 135.848 751.088C149.317 759.044 159.716 770.001 167.044 783.959C174.302 797.917 177.931 813.899 177.931 831.905C177.931 852.004 173.5 869.661 164.636 884.875C155.703 900.089 143.036 911.954 126.636 920.468C110.165 928.912 90.624 933.135 68.0121 933.135C50.6344 933.135 35.1411 930.622 21.5321 925.597C7.85325 920.503 -3.73186 913.384 -13.2233 904.242C-22.7147 895.099 -29.938 884.456 -34.893 872.313C-39.8481 860.169 -42.3257 847.014 -42.3257 832.847C-42.3257 820.703 -40.546 809.397 -36.9867 798.929C-33.4972 788.46 -28.5422 779.178 -22.1215 771.083C-15.7008 762.917 -8.05884 756.252 0.804472 751.088C9.598 745.923 19.2988 742.608 29.9069 741.143L29.9069 787.204ZM82.0399 661.347L175 661.347L175 705.943L14.2041 705.943L14.2041 663.441L42.5737 663.441L42.5737 661.556C33.2219 657.997 25.8241 652.03 20.3805 643.655C14.8671 635.28 12.1104 625.126 12.1104 613.192C12.1104 602.025 14.5531 592.29 19.4384 583.985C24.3237 575.68 31.3027 569.224 40.3753 564.618C49.3782 560.012 60.1259 557.709 72.6183 557.709L175 557.709L175 602.305L80.5743 602.305C70.7339 602.235 63.057 604.747 57.5436 609.842C51.9605 614.937 49.1689 621.95 49.1689 630.884C49.1689 636.885 50.46 642.19 53.0422 646.796C55.6244 651.332 59.3931 654.891 64.3482 657.473C69.2335 659.986 75.1307 661.277 82.0399 661.347ZM178.036 476.709C178.036 486.968 176.256 496.111 172.697 504.136C169.068 512.162 163.729 518.513 156.68 523.189C149.562 527.795 140.698 530.098 130.09 530.098C121.157 530.098 113.655 528.458 107.583 525.178C101.511 521.898 96.626 517.431 92.9271 511.778C89.2283 506.125 86.4367 499.705 84.5523 492.516C82.668 485.258 81.342 477.651 80.5743 469.695C79.5973 460.343 78.69 452.806 77.8525 447.083C76.9452 441.36 75.6192 437.208 73.8745 434.626C72.1297 432.043 69.5475 430.752 66.1278 430.752L65.4997 430.752C58.8697 430.752 53.7401 432.846 50.111 437.033C46.482 441.151 44.6674 447.013 44.6674 454.621C44.6674 462.646 46.4471 469.032 50.0063 473.778C53.4958 478.524 57.8926 481.664 63.1966 483.199L59.8467 524.445C50.0761 522.352 41.6316 518.234 34.513 512.092C27.3246 505.951 21.8112 498.03 17.9728 488.329C14.0646 478.558 12.1104 467.252 12.1104 454.411C12.1104 445.478 13.1573 436.929 15.251 428.763C17.3447 420.528 20.5899 413.235 24.9867 406.884C29.3834 400.464 35.0364 395.404 41.9456 391.705C48.785 388.006 56.9853 386.157 66.5465 386.157L175 386.157L175 428.449L152.702 428.449L152.702 429.706C157.727 432.288 162.159 435.742 165.997 440.069C169.766 444.396 172.732 449.596 174.895 455.667C176.989 461.739 178.036 468.753 178.036 476.709ZM147.259 463.937C147.259 457.377 145.967 451.585 143.385 446.56C140.733 441.535 137.174 437.592 132.707 434.73C128.241 431.869 123.181 430.438 117.528 430.438L100.464 430.438C101.372 431.834 102.209 433.753 102.977 436.196C103.675 438.569 104.338 441.256 104.966 444.257C105.524 447.258 106.048 450.259 106.536 453.26C106.955 456.261 107.339 458.982 107.688 461.425C108.455 466.659 109.677 471.23 111.352 475.139C113.027 479.047 115.295 482.083 118.156 484.246C120.948 486.41 124.437 487.492 128.625 487.492C134.696 487.492 139.337 485.293 142.548 480.896C145.688 476.43 147.259 470.777 147.259 463.937ZM175 351.558L14.2041 351.558L14.2041 308.323L42.2597 308.323L42.2597 306.649C32.2797 303.717 24.7424 298.797 19.6478 291.888C14.4833 284.979 11.9011 277.023 11.9011 268.02C11.9011 265.787 12.0407 263.379 12.3198 260.797C12.599 258.214 12.9828 255.946 13.4713 253.992L53.0422 253.992C52.4141 256.086 51.8558 258.982 51.3672 262.681C50.8787 266.38 50.6345 269.765 50.6345 272.835C50.6345 279.396 52.0651 285.258 54.9265 290.422C57.7181 295.517 61.6264 299.565 66.6512 302.566C71.6761 305.497 77.4687 306.963 84.0289 306.963L175 306.963L175 351.558ZM-39.3945 186.339L175 186.339L175 230.935L-39.3945 230.935L-39.3945 186.339ZM235.298 123.084C235.298 128.737 234.845 134.041 233.938 138.996C233.1 143.881 232.018 147.929 230.692 151.139L197.403 141.089C199.008 135.855 199.88 131.144 200.02 126.957C200.159 122.7 199.182 119.036 197.089 115.965C194.995 112.825 191.436 110.277 186.411 108.323L179.606 105.706L14.2041 163.387L14.2041 116.489L132.289 83.1988L132.289 81.5238L14.2041 47.92L14.2041 0.707166L192.378 63.204C201.032 66.205 208.569 70.2877 214.99 75.4521C221.48 80.5468 226.47 87.0023 229.96 94.8188C233.519 102.635 235.298 112.057 235.298 123.084Z" fill="black"/>
</svg>
