<svg width="862" height="222" viewBox="0 0 862 222" fill="none" xmlns="http://www.w3.org/2000/svg">
<path d="M123.939 65.2649C123.101 56.8203 119.507 50.26 113.156 45.5841C106.805 40.9082 98.1863 38.5702 87.299 38.5702C79.9013 38.5702 73.6551 39.6171 68.5605 41.7108C63.4658 43.7347 59.5576 46.5612 56.8358 50.1902C54.1837 53.8193 52.8577 57.9369 52.8577 62.5431C52.7182 66.3815 53.5207 69.7314 55.2655 72.5928C57.08 75.4542 59.5576 77.9317 62.6981 80.0254C65.8387 82.0493 69.4677 83.829 73.5853 85.3643C77.7029 86.8299 82.0997 88.0862 86.7756 89.133L106.038 93.7391C115.389 95.8328 123.974 98.6244 131.79 102.114C139.607 105.603 146.376 109.895 152.099 114.99C157.822 120.085 162.253 126.087 165.394 132.996C168.604 139.905 170.244 147.826 170.314 156.759C170.244 169.88 166.894 181.256 160.264 190.887C153.704 200.448 144.213 207.88 131.79 213.184C119.437 218.419 104.537 221.036 87.0897 221.036C69.7818 221.036 54.7072 218.384 41.8658 213.08C29.0943 207.776 19.1143 199.924 11.926 189.526C4.80741 179.057 1.07365 166.111 0.724698 150.688H44.5876C45.0762 157.876 47.135 163.878 50.764 168.693C54.4629 173.439 59.3831 177.033 65.5246 179.476C71.7359 181.849 78.7498 183.035 86.5662 183.035C94.2431 183.035 100.908 181.919 106.561 179.685C112.284 177.452 116.715 174.346 119.856 170.368C122.997 166.39 124.567 161.819 124.567 156.655C124.567 151.839 123.136 147.791 120.275 144.511C117.483 141.231 113.366 138.44 107.922 136.136C102.548 133.833 95.953 131.74 88.1365 129.855L64.7918 123.993C46.7162 119.596 32.4442 112.722 21.9757 103.37C11.5072 94.0183 6.30789 81.4212 6.37768 65.5789C6.30789 52.598 9.76249 41.2571 16.7415 31.5564C23.7903 21.8556 33.4561 14.2834 45.7392 8.83975C58.0222 3.39614 71.9802 0.674331 87.6131 0.674331C103.525 0.674331 117.413 3.39614 129.278 8.83975C141.212 14.2834 150.494 21.8556 157.124 31.5564C163.754 41.2571 167.174 52.4933 167.383 65.2649H123.939ZM244.562 125.04V218H199.966V3.60551H243.306V85.5737H245.19C248.819 76.0823 254.681 68.6497 262.777 63.2758C270.873 57.8322 281.027 55.1104 293.24 55.1104C304.407 55.1104 314.142 57.5531 322.447 62.4384C330.822 67.2539 337.313 74.198 341.919 83.2707C346.595 92.2735 348.898 103.056 348.828 115.618V218H304.232V123.574C304.302 113.664 301.789 105.952 296.695 100.439C291.67 94.9256 284.621 92.1689 275.548 92.1689C269.477 92.1689 264.103 93.46 259.427 96.0422C254.821 98.6244 251.192 102.393 248.54 107.348C245.958 112.233 244.632 118.131 244.562 125.04ZM429.775 221.036C419.516 221.036 410.374 219.256 402.348 215.697C394.322 212.068 387.971 206.729 383.295 199.68C378.689 192.562 376.386 183.698 376.386 173.09C376.386 164.157 378.026 156.655 381.306 150.583C384.586 144.511 389.053 139.626 394.706 135.927C400.359 132.228 406.78 129.437 413.968 127.552C421.226 125.668 428.833 124.342 436.789 123.574C446.141 122.597 453.678 121.69 459.401 120.852C465.124 119.945 469.276 118.619 471.859 116.874C474.441 115.13 475.732 112.548 475.732 109.128V108.5C475.732 101.87 473.638 96.7401 469.451 93.111C465.333 89.4819 459.471 87.6674 451.864 87.6674C443.838 87.6674 437.452 89.4471 432.707 93.0063C427.961 96.4958 424.82 100.893 423.285 106.197L382.039 102.847C384.133 93.0761 388.25 84.6315 394.392 77.513C400.533 70.3246 408.455 64.8112 418.155 60.9728C427.926 57.0646 439.232 55.1104 452.073 55.1104C461.006 55.1104 469.556 56.1573 477.721 58.251C485.956 60.3447 493.249 63.5899 499.6 67.9867C506.021 72.3834 511.081 78.0364 514.779 84.9456C518.478 91.785 520.328 99.9853 520.328 109.547V218H478.035V195.702H476.779C474.197 200.727 470.742 205.159 466.415 208.997C462.088 212.766 456.889 215.732 450.817 217.895C444.745 219.989 437.731 221.036 429.775 221.036ZM442.547 190.259C449.107 190.259 454.9 188.967 459.925 186.385C464.949 183.733 468.893 180.174 471.754 175.707C474.615 171.241 476.046 166.181 476.046 160.528V143.464C474.65 144.372 472.731 145.209 470.288 145.977C467.916 146.675 465.229 147.338 462.228 147.966C459.227 148.524 456.226 149.048 453.225 149.536C450.224 149.955 447.502 150.339 445.059 150.688C439.825 151.455 435.254 152.677 431.346 154.352C427.437 156.027 424.402 158.295 422.238 161.156C420.075 163.948 418.993 167.437 418.993 171.625C418.993 177.696 421.191 182.337 425.588 185.548C430.055 188.688 435.708 190.259 442.547 190.259ZM595.334 171.729L595.439 118.235H601.93L653.434 57.2041H704.625L635.429 138.021H624.856L595.334 171.729ZM554.926 218V3.60551H599.522V218H554.926ZM655.423 218L608.106 147.966L637.836 116.456L707.661 218H655.423ZM772.356 221.036C762.097 221.036 752.955 219.256 744.929 215.697C736.903 212.068 730.552 206.729 725.876 199.68C721.27 192.562 718.967 183.698 718.967 173.09C718.967 164.157 720.607 156.655 723.887 150.583C727.167 144.511 731.634 139.626 737.287 135.927C742.94 132.228 749.361 129.437 756.549 127.552C763.807 125.668 771.414 124.342 779.37 123.574C788.722 122.597 796.259 121.69 801.982 120.852C807.705 119.945 811.858 118.619 814.44 116.874C817.022 115.13 818.313 112.548 818.313 109.128V108.5C818.313 101.87 816.219 96.7401 812.032 93.111C807.914 89.4819 802.052 87.6674 794.445 87.6674C786.419 87.6674 780.033 89.4471 775.288 93.0063C770.542 96.4958 767.401 100.893 765.866 106.197L724.62 102.847C726.714 93.0761 730.831 84.6315 736.973 77.513C743.114 70.3246 751.036 64.8112 760.736 60.9728C770.507 57.0646 781.813 55.1104 794.654 55.1104C803.587 55.1104 812.137 56.1573 820.302 58.251C828.537 60.3447 835.83 63.5899 842.181 67.9867C848.602 72.3834 853.662 78.0364 857.36 84.9456C861.059 91.785 862.909 99.9853 862.909 109.547V218H820.616V195.702H819.36C816.778 200.727 813.323 205.159 808.996 208.997C804.669 212.766 799.47 215.732 793.398 217.895C787.326 219.989 780.312 221.036 772.356 221.036ZM785.128 190.259C791.688 190.259 797.481 188.967 802.506 186.385C807.531 183.733 811.474 180.174 814.335 175.707C817.196 171.241 818.627 166.181 818.627 160.528V143.464C817.231 144.372 815.312 145.209 812.869 145.977C810.497 146.675 807.81 147.338 804.809 147.966C801.808 148.524 798.807 149.048 795.806 149.536C792.805 149.955 790.083 150.339 787.64 150.688C782.406 151.455 777.835 152.677 773.927 154.352C770.018 156.027 766.983 158.295 764.819 161.156C762.656 163.948 761.574 167.437 761.574 171.625C761.574 177.696 763.772 182.337 768.169 185.548C772.636 188.688 778.289 190.259 785.128 190.259Z" fill="white"/>
</svg>
