<svg width="193" height="824" viewBox="0 0 193 824" fill="none" xmlns="http://www.w3.org/2000/svg">
<path d="M156.735 123.939C165.18 123.101 171.74 119.507 176.416 113.156C181.092 106.805 183.43 98.1863 183.43 87.299C183.43 79.9013 182.383 73.6551 180.289 68.5605C178.265 63.4658 175.439 59.5576 171.81 56.8357C168.181 54.1837 164.063 52.8577 159.457 52.8577C155.618 52.7181 152.269 53.5207 149.407 55.2655C146.546 57.08 144.068 59.5576 141.975 62.6981C139.951 65.8386 138.171 69.4677 136.636 73.5853C135.17 77.7029 133.914 82.0997 132.867 86.7756L128.261 106.038C126.167 115.389 123.376 123.974 119.886 131.79C116.397 139.607 112.105 146.376 107.01 152.099C101.915 157.822 95.9133 162.253 89.0041 165.394C82.0949 168.604 74.1737 170.244 65.2406 170.314C52.1201 170.244 40.7444 166.894 31.1134 160.264C21.5521 153.704 14.1195 144.213 8.8155 131.79C3.58126 119.437 0.964135 104.537 0.964136 87.0897C0.964137 69.7818 3.61615 54.7072 8.92018 41.8658C14.2242 29.0943 22.0756 19.1143 32.4743 11.926C42.9427 4.80739 55.8888 1.07364 71.3123 0.724687L71.3123 44.5876C64.124 45.0762 58.122 47.135 53.3065 50.764C48.5608 54.4629 44.9667 59.3831 42.524 65.5246C40.1512 71.7359 38.9647 78.7498 38.9647 86.5662C38.9647 94.2431 40.0814 100.908 42.3146 106.561C44.5479 112.284 47.6536 116.715 51.6316 119.856C55.6096 122.997 60.1808 124.567 65.3453 124.567C70.1608 124.567 74.2086 123.136 77.4887 120.275C80.7689 117.483 83.5605 113.366 85.8635 107.922C88.1666 102.548 90.2603 95.953 92.1446 88.1365L98.007 64.7918C102.404 46.7162 109.278 32.4442 118.63 21.9757C127.982 11.5072 140.579 6.30788 156.421 6.37767C169.402 6.30788 180.743 9.76248 190.444 16.7415C200.144 23.7902 207.717 33.4561 213.16 45.7392C218.604 58.0222 221.326 71.9802 221.326 87.6131C221.326 103.525 218.604 117.413 213.16 129.278C207.717 141.212 200.144 150.494 190.444 157.124C180.743 163.754 169.507 167.174 156.735 167.383L156.735 123.939ZM96.9601 244.562L3.99999 244.562L3.99999 199.966L218.394 199.966L218.394 243.306L136.426 243.306L136.426 245.19C145.918 248.819 153.35 254.681 158.724 262.777C164.168 270.873 166.89 281.027 166.89 293.24C166.89 304.407 164.447 314.142 159.562 322.447C154.746 330.822 147.802 337.313 138.729 341.919C129.726 346.595 118.944 348.898 106.382 348.828L3.99998 348.828L3.99999 304.232L98.4257 304.232C108.336 304.302 116.048 301.789 121.561 296.695C127.074 291.67 129.831 284.621 129.831 275.548C129.831 269.477 128.54 264.103 125.958 259.427C123.376 254.821 119.607 251.192 114.652 248.54C109.767 245.958 103.869 244.632 96.9601 244.562ZM3.99998 383.923L164.796 383.923L164.796 427.158L136.74 427.158L136.74 428.833C146.72 431.764 154.258 436.685 159.352 443.594C164.517 450.503 167.099 458.459 167.099 467.462C167.099 469.695 166.959 472.103 166.68 474.685C166.401 477.267 166.017 479.536 165.529 481.49L125.958 481.49C126.586 479.396 127.144 476.5 127.633 472.801C128.121 469.102 128.366 465.717 128.366 462.646C128.366 456.086 126.935 450.224 124.073 445.059C121.282 439.965 117.374 435.917 112.349 432.916C107.324 429.985 101.531 428.519 94.9711 428.519L3.99998 428.519L3.99998 383.923ZM0.85943 570.341C0.859431 553.801 4.20935 539.564 10.9092 527.63C17.6788 515.765 27.24 506.623 39.5928 500.202C52.0154 493.781 66.7062 490.571 83.6651 490.571C100.205 490.571 114.722 493.781 127.214 500.202C139.706 506.623 149.442 515.661 156.421 527.315C163.4 539.04 166.89 552.789 166.89 568.561C166.89 579.169 165.18 589.045 161.76 598.187C158.41 607.399 153.35 615.425 146.581 622.265C139.811 629.174 131.297 634.548 121.038 638.386C110.848 642.224 98.9142 644.144 85.2354 644.144L72.9873 644.144L72.9873 508.368L100.624 508.368L100.624 602.165C107.045 602.165 112.733 600.769 117.688 597.978C122.643 595.186 126.516 591.313 129.308 586.358C132.169 581.472 133.6 575.785 133.6 569.294C133.6 562.524 132.029 556.523 128.889 551.288C125.818 546.124 121.666 542.076 116.431 539.145C111.267 536.214 105.509 534.713 99.1585 534.643L72.8826 534.643C64.9265 534.643 58.0522 536.109 52.2597 539.04C46.4671 542.041 42.0006 546.263 38.86 551.707C35.7195 557.151 34.1492 563.606 34.1492 571.074C34.1492 576.029 34.8471 580.565 36.2429 584.683C37.6387 588.8 39.7324 592.325 42.524 595.256C45.3156 598.187 48.7353 600.42 52.7831 601.956L50.0613 643.202C40.1511 641.108 31.4972 636.816 24.0995 630.325C16.7715 623.905 11.0487 615.6 6.93115 605.41C2.88334 595.291 0.85943 583.601 0.85943 570.341ZM1.38285 732.498C1.38285 720.284 4.52339 709.223 10.8045 699.313C17.1554 689.472 26.4723 681.656 38.7553 675.863C51.1081 670.14 66.2525 667.279 84.1885 667.279C102.613 667.279 117.932 670.245 130.145 676.177C142.428 682.109 151.606 689.996 157.677 699.836C163.819 709.746 166.89 720.598 166.89 732.393C166.89 741.396 165.354 748.898 162.283 754.9C159.282 760.972 155.514 765.857 150.977 769.556C146.511 773.325 142.114 776.186 137.787 778.14L137.787 779.501L218.394 779.501L218.394 823.992L3.99996 823.992L3.99997 780.025L29.7524 780.025L29.7524 778.14C25.2859 776.047 20.8542 773.08 16.4575 769.242C12.1305 765.473 8.53631 760.553 5.67492 754.481C2.81354 748.48 1.38285 741.152 1.38285 732.498ZM36.871 746.63C36.871 753.818 38.8251 759.89 42.7333 764.845C46.7114 769.87 52.2597 773.709 59.3782 776.361C66.4968 779.082 74.8367 780.443 84.3979 780.443C93.9591 780.443 102.264 779.117 109.313 776.465C116.362 773.813 121.805 769.975 125.644 764.95C129.482 759.925 131.401 753.818 131.401 746.63C131.401 739.302 129.412 733.126 125.434 728.101C121.456 723.076 115.943 719.272 108.894 716.69C101.845 714.108 93.68 712.817 84.3979 712.817C75.0461 712.817 66.776 714.108 59.5876 716.69C52.469 719.342 46.8858 723.146 42.838 728.101C38.86 733.126 36.871 739.302 36.871 746.63Z" fill="black"/>
</svg>
