<svg width="539" height="229" viewBox="0 0 539 229" fill="none" xmlns="http://www.w3.org/2000/svg">
<path d="M55.9387 72.2649C55.1012 63.8203 51.5071 57.26 45.1562 52.5841C38.8053 47.9082 30.1863 45.5702 19.299 45.5702C11.9013 45.5702 5.65512 46.6171 0.560457 48.7108C-4.5342 50.7347 -8.44244 53.5612 -11.1642 57.1902C-13.8163 60.8193 -15.1423 64.9369 -15.1423 69.5431C-15.2818 73.3815 -14.4793 76.7314 -12.7345 79.5928C-10.92 82.4542 -8.44244 84.9317 -5.3019 87.0254C-2.16135 89.0493 1.46772 90.829 5.58532 92.3643C9.70293 93.8299 14.0997 95.0862 18.7756 96.133L38.0376 100.739C47.3895 102.833 55.9736 105.624 63.7901 109.114C71.6065 112.603 78.3762 116.895 84.0989 121.99C89.8217 127.085 94.2534 133.087 97.3939 139.996C100.604 146.905 102.244 154.826 102.314 163.759C102.244 176.88 98.8944 188.256 92.2644 197.887C85.7041 207.448 76.2127 214.88 63.7901 220.184C51.4373 225.419 36.5371 228.036 19.0897 228.036C1.78178 228.036 -13.2928 225.384 -26.1342 220.08C-38.9057 214.776 -48.8857 206.924 -56.074 196.526C-63.1926 186.057 -66.9264 173.111 -67.2753 157.688H-23.4124C-22.9238 164.876 -20.865 170.878 -17.236 175.693C-13.5371 180.439 -8.61691 184.033 -2.47541 186.476C3.73589 188.849 10.7498 190.035 18.5662 190.035C26.2431 190.035 32.9081 188.919 38.561 186.685C44.2838 184.452 48.7155 181.346 51.856 177.368C54.9966 173.39 56.5668 168.819 56.5668 163.655C56.5668 158.839 55.1361 154.791 52.2747 151.511C49.4832 148.231 45.3656 145.44 39.9219 143.136C34.5481 140.833 27.953 138.74 20.1365 136.855L-3.2082 130.993C-21.2838 126.596 -35.5558 119.722 -46.0243 110.37C-56.4928 101.018 -61.6921 88.4212 -61.6223 72.5789C-61.6921 59.598 -58.2375 48.2571 -51.2585 38.5564C-44.2097 28.8556 -34.5439 21.2834 -22.2608 15.8397C-9.97782 10.3961 3.98016 7.67433 19.6131 7.67433C35.5252 7.67433 49.4134 10.3961 61.2776 15.8397C73.2117 21.2834 82.4938 28.8556 89.1238 38.5564C95.7538 48.2571 99.1735 59.4933 99.3829 72.2649H55.9387ZM235.081 156.536V64.2041H279.676V225H236.86V195.793H235.185C231.556 205.215 225.519 212.787 217.075 218.51C208.7 224.232 198.476 227.094 186.402 227.094C175.655 227.094 166.198 224.651 158.033 219.766C149.867 214.88 143.481 207.936 138.875 198.933C134.339 189.931 132.036 179.148 131.966 166.586V64.2041H176.562V158.63C176.632 168.121 179.179 175.624 184.204 181.137C189.229 186.65 195.963 189.407 204.408 189.407C209.782 189.407 214.807 188.186 219.483 185.743C224.158 183.231 227.927 179.532 230.789 174.647C233.72 169.761 235.15 163.724 235.081 156.536ZM315.348 225V64.2041H358.583V92.2597H360.257C363.189 82.2797 368.109 74.7424 375.018 69.6477C381.927 64.4833 389.883 61.9011 398.886 61.9011C401.119 61.9011 403.527 62.0406 406.109 62.3198C408.692 62.599 410.96 62.9828 412.914 63.4713V103.042C410.82 102.414 407.924 101.856 404.225 101.367C400.526 100.879 397.141 100.634 394.071 100.634C387.51 100.634 381.648 102.065 376.484 104.927C371.389 107.718 367.341 111.626 364.34 116.651C361.409 121.676 359.943 127.469 359.943 134.029V225H315.348ZM530.501 64.2041V97.7033H431.26V64.2041H530.501ZM453.977 225V52.5841C453.977 40.9292 456.245 31.2633 460.781 23.5864C465.387 15.9095 471.668 10.1519 479.624 6.31342C487.58 2.47498 496.618 0.555757 506.738 0.555757C513.577 0.555757 519.823 1.07919 525.476 2.12604C531.199 3.17289 535.456 4.11505 538.248 4.95253L530.292 38.4517C528.547 37.8933 526.384 37.3699 523.801 36.8814C521.289 36.3929 518.707 36.1486 516.055 36.1486C509.494 36.1486 504.923 37.684 502.341 40.7547C499.759 43.7557 498.468 47.978 498.468 53.4216V225H453.977Z" fill="black"/>
</svg>
